<svg width="54" height="54" viewBox="0 0 54 54" fill="none" xmlns="http://www.w3.org/2000/svg">
<path d="M52 27C52 40.8071 40.8071 52 27 52C13.1929 52 2 40.8071 2 27C2 13.1929 13.1929 2 27 2C40.8071 2 52 13.1929 52 27Z" fill="white"/>
<path d="M25.9393 32.5607C26.5251 33.1464 27.4749 33.1464 28.0607 32.5607L37.6066 23.0147C38.1924 22.4289 38.1924 21.4792 37.6066 20.8934C37.0208 20.3076 36.0711 20.3076 35.4853 20.8934L27 29.3787L18.5147 20.8934C17.9289 20.3076 16.9792 20.3076 16.3934 20.8934C15.8076 21.4792 15.8076 22.4289 16.3934 23.0147L25.9393 32.5607ZM12.5 40.5H11V42H12.5V40.5ZM42 40.5V42H43.5V40.5H42ZM50.5 27C50.5 39.9787 39.9787 50.5 27 50.5V53.5C41.6355 53.5 53.5 41.6355 53.5 27H50.5ZM27 50.5C14.0213 50.5 3.5 39.9787 3.5 27H0.5C0.5 41.6355 12.3645 53.5 27 53.5V50.5ZM3.5 27C3.5 14.0213 14.0213 3.5 27 3.5V0.5C12.3645 0.5 0.5 12.3645 0.5 27H3.5ZM27 3.5C39.9787 3.5 50.5 14.0213 50.5 27H53.5C53.5 12.3645 41.6355 0.5 27 0.5V3.5ZM25.5 8.5V25.5H28.5V8.5H25.5ZM27 25.5C25.5 25.5 25.5 25.5 25.5 25.5C25.5 25.5001 25.5 25.5001 25.5 25.5001C25.5 25.5002 25.5 25.5002 25.5 25.5003C25.5 25.5004 25.5 25.5005 25.5 25.5005C25.5 25.5006 25.5 25.5007 25.5 25.5009C25.5 25.501 25.5 25.5011 25.5 25.5012C25.5 25.5014 25.5 25.5015 25.5 25.5017C25.5 25.5018 25.5 25.502 25.5 25.5022C25.5 25.5024 25.5 25.5026 25.5 25.5028C25.5 25.503 25.5 25.5032 25.5 25.5034C25.5 25.5036 25.5 25.5039 25.5 25.5041C25.5 25.5044 25.5 25.5046 25.5 25.5049C25.5 25.5052 25.5 25.5055 25.5 25.5058C25.5 25.506 25.5 25.5064 25.5 25.5067C25.5 25.507 25.5 25.5073 25.5 25.5076C25.5 25.508 25.5 25.5083 25.5 25.5087C25.5 25.5091 25.5 25.5094 25.5 25.5098C25.5 25.5102 25.5 25.5106 25.5 25.511C25.5 25.5114 25.5 25.5118 25.5 25.5122C25.5 25.5127 25.5 25.5131 25.5 25.5136C25.5 25.514 25.5 25.5145 25.5 25.5149C25.5 25.5154 25.5 25.5159 25.5 25.5164C25.5 25.5169 25.5 25.5174 25.5 25.5179C25.5 25.5184 25.5 25.5189 25.5 25.5195C25.5 25.52 25.5 25.5206 25.5 25.5211C25.5 25.5217 25.5 25.5222 25.5 25.5228C25.5 25.5234 25.5 25.524 25.5 25.5246C25.5 25.5252 25.5 25.5258 25.5 25.5264C25.5 25.527 25.5 25.5277 25.5 25.5283C25.5 25.529 25.5 25.5296 25.5 25.5303C25.5 25.531 25.5 25.5316 25.5 25.5323C25.5 25.533 25.5 25.5337 25.5 25.5344C25.5 25.5351 25.5 25.5359 25.5 25.5366C25.5 25.5373 25.5 25.5381 25.5 25.5388C25.5 25.5396 25.5 25.5403 25.5 25.5411C25.5 25.5419 25.5 25.5427 25.5 25.5435C25.5 25.5442 25.5 25.5451 25.5 25.5459C25.5 25.5467 25.5 25.5475 25.5 25.5483C25.5 25.5492 25.5 25.55 25.5 25.5509C25.5 25.5518 25.5 25.5526 25.5 25.5535C25.5 25.5544 25.5 25.5553 25.5 25.5562C25.5 25.5571 25.5 25.558 25.5 25.5589C25.5 25.5598 25.5 25.5608 25.5 25.5617C25.5 25.5626 25.5 25.5636 25.5 25.5646C25.5 25.5655 25.5 25.5665 25.5 25.5675C25.5 25.5685 25.5 25.5695 25.5 25.5705C25.5 25.5715 25.5 25.5725 25.5 25.5735C25.5 25.5745 25.5 25.5756 25.5 25.5766C25.5 25.5777 25.5 25.5787 25.5 25.5798C25.5 25.5809 25.5 25.5819 25.5 25.583C25.5 25.5841 25.5 25.5852 25.5 25.5863C25.5 25.5874 25.5 25.5886 25.5 25.5897C25.5 25.5908 25.5 25.592 25.5 25.5931C25.5 25.5943 25.5 25.5954 25.5 25.5966C25.5 25.5978 25.5 25.5989 25.5 25.6001C25.5 25.6013 25.5 25.6025 25.5 25.6037C25.5 25.605 25.5 25.6062 25.5 25.6074C25.5 25.6086 25.5 25.6099 25.5 25.6111C25.5 25.6124 25.5 25.6136 25.5 25.6149C25.5 25.6162 25.5 25.6175 25.5 25.6188C25.5 25.6201 25.5 25.6214 25.5 25.6227C25.5 25.624 25.5 25.6253 25.5 25.6266C25.5 25.628 25.5 25.6293 25.5 25.6307C25.5 25.632 25.5 25.6334 25.5 25.6348C25.5 25.6361 25.5 25.6375 25.5 25.6389C25.5 25.6403 25.5 25.6417 25.5 25.6431C25.5 25.6445 25.5 25.646 25.5 25.6474C25.5 25.6488 25.5 25.6503 25.5 25.6517C25.5 25.6532 25.5 25.6546 25.5 25.6561C25.5 25.6576 25.5 25.6591 25.5 25.6606C25.5 25.6621 25.5 25.6636 25.5 25.6651C25.5 25.6666 25.5 25.6681 25.5 25.6696C25.5 25.6712 25.5 25.6727 25.5 25.6743C25.5 25.6758 25.5 25.6774 25.5 25.6789C25.5 25.6805 25.5 25.6821 25.5 25.6837C25.5 25.6853 25.5 25.6869 25.5 25.6885C25.5 25.6901 25.5 25.6917 25.5 25.6934C25.5 25.695 25.5 25.6966 25.5 25.6983C25.5 25.6999 25.5 25.7016 25.5 25.7032C25.5 25.7049 25.5 25.7066 25.5 25.7083C25.5 25.71 25.5 25.7117 25.5 25.7134C25.5 25.7151 25.5 25.7168 25.5 25.7185C25.5 25.7203 25.5 25.722 25.5 25.7237C25.5 25.7255 25.5 25.7272 25.5 25.729C25.5 25.7308 25.5 25.7325 25.5 25.7343C25.5 25.7361 25.5 25.7379 25.5 25.7397C25.5 25.7415 25.5 25.7433 25.5 25.7451C25.5 25.747 25.5 25.7488 25.5 25.7506C25.5 25.7525 25.5 25.7543 25.5 25.7562C25.5 25.758 25.5 25.7599 25.5 25.7618C25.5 25.7637 25.5 25.7656 25.5 25.7675C25.5 25.7694 25.5 25.7713 25.5 25.7732C25.5 25.7751 25.5 25.777 25.5 25.779C25.5 25.7809 25.5 25.7828 25.5 25.7848C25.5 25.7867 25.5 25.7887 25.5 25.7907C25.5 25.7927 25.5 25.7946 25.5 25.7966C25.5 25.7986 25.5 25.8006 25.5 25.8026C25.5 25.8046 25.5 25.8067 25.5 25.8087C25.5 25.8107 25.5 25.8128 25.5 25.8148C25.5 25.8168 25.5 25.8189 25.5 25.821C25.5 25.823 25.5 25.8251 25.5 25.8272C25.5 25.8293 25.5 25.8314 25.5 25.8335C25.5 25.8356 25.5 25.8377 25.5 25.8398C25.5 25.8419 25.5 25.8441 25.5 25.8462C25.5 25.8483 25.5 25.8505 25.5 25.8526C25.5 25.8548 25.5 25.857 25.5 25.8591C25.5 25.8613 25.5 25.8635 25.5 25.8657C25.5 25.8679 25.5 25.8701 25.5 25.8723C25.5 25.8745 25.5 25.8767 25.5 25.879C25.5 25.8812 25.5 25.8834 25.5 25.8857C25.5 25.8879 25.5 25.8902 25.5 25.8924C25.5 25.8947 25.5 25.897 25.5 25.8993C25.5 25.9015 25.5 25.9038 25.5 25.9061C25.5 25.9084 25.5 25.9107 25.5 25.9131C25.5 25.9154 25.5 25.9177 25.5 25.9201C25.5 25.9224 25.5 25.9247 25.5 25.9271C25.5 25.9294 25.5 25.9318 25.5 25.9342C25.5 25.9365 25.5 25.9389 25.5 25.9413C25.5 25.9437 25.5 25.9461 25.5 25.9485C25.5 25.9509 25.5 25.9533 25.5 25.9558C25.5 25.9582 25.5 25.9606 25.5 25.9631C25.5 25.9655 25.5 25.968 25.5 25.9704C25.5 25.9729 25.5 25.9753 25.5 25.9778C25.5 25.9803 25.5 25.9828 25.5 25.9853C25.5 25.9878 25.5 25.9903 25.5 25.9928C25.5 25.9953 25.5 25.9978 25.5 26.0003C25.5 26.0029 25.5 26.0054 25.5 26.008C25.5 26.0105 25.5 26.0131 25.5 26.0156C25.5 26.0182 25.5 26.0208 25.5 26.0233C25.5 26.0259 25.5 26.0285 25.5 26.0311C25.5 26.0337 25.5 26.0363 25.5 26.0389C25.5 26.0415 25.5 26.0442 25.5 26.0468C25.5 26.0494 25.5 26.0521 25.5 26.0547C25.5 26.0574 25.5 26.06 25.5 26.0627C25.5 26.0654 25.5 26.068 25.5 26.0707C25.5 26.0734 25.5 26.0761 25.5 26.0788C25.5 26.0815 25.5 26.0842 25.5 26.0869C25.5 26.0896 25.5 26.0923 25.5 26.0951C25.5 26.0978 25.5 26.1006 25.5 26.1033C25.5 26.1061 25.5 26.1088 25.5 26.1116C25.5 26.1143 25.5 26.1171 25.5 26.1199C25.5 26.1227 25.5 26.1255 25.5 26.1283C25.5 26.1311 25.5 26.1339 25.5 26.1367C25.5 26.1395 25.5 26.1423 25.5 26.1452C25.5 26.148 25.5 26.1508 25.5 26.1537C25.5 26.1565 25.5 26.1594 25.5 26.1623C25.5 26.1651 25.5 26.168 25.5 26.1709C25.5 26.1738 25.5 26.1767 25.5 26.1796C25.5 26.1825 25.5 26.1854 25.5 26.1883C25.5 26.1912 25.5 26.1941 25.5 26.197C25.5 26.2 25.5 26.2029 25.5 26.2059C25.5 26.2088 25.5 26.2118 25.5 26.2147C25.5 26.2177 25.5 26.2207 25.5 26.2236C25.5 26.2266 25.5 26.2296 25.5 26.2326C25.5 26.2356 25.5 26.2386 25.5 26.2416C25.5 26.2446 25.5 26.2476 25.5 26.2507C25.5 26.2537 25.5 26.2567 25.5 26.2598C25.5 26.2628 25.5 26.2659 25.5 26.2689C25.5 26.272 25.5 26.275 25.5 26.2781C25.5 26.2812 25.5 26.2843 25.5 26.2874C25.5 26.2904 25.5 26.2935 25.5 26.2966C25.5 26.2998 25.5 26.3029 25.5 26.306C25.5 26.3091 25.5 26.3122 25.5 26.3154C25.5 26.3185 25.5 26.3217 25.5 26.3248C25.5 26.328 25.5 26.3311 25.5 26.3343C25.5 26.3375 25.5 26.3406 25.5 26.3438C25.5 26.347 25.5 26.3502 25.5 26.3534C25.5 26.3566 25.5 26.3598 25.5 26.363C25.5 26.3662 25.5 26.3694 25.5 26.3727C25.5 26.3759 25.5 26.3791 25.5 26.3824C25.5 26.3856 25.5 26.3889 25.5 26.3921C25.5 26.3954 25.5 26.3987 25.5 26.402C25.5 26.4052 25.5 26.4085 25.5 26.4118C25.5 26.4151 25.5 26.4184 25.5 26.4217C25.5 26.425 25.5 26.4283 25.5 26.4316C25.5 26.435 25.5 26.4383 25.5 26.4416C25.5 26.445 25.5 26.4483 25.5 26.4517C25.5 26.455 25.5 26.4584 25.5 26.4617C25.5 26.4651 25.5 26.4685 25.5 26.4718C25.5 26.4752 25.5 26.4786 25.5 26.482C25.5 26.4854 25.5 26.4888 25.5 26.4922C25.5 26.4956 25.5 26.499 25.5 26.5025C25.5 26.5059 25.5 26.5093 25.5 26.5128C25.5 26.5162 25.5 26.5197 25.5 26.5231C25.5 26.5266 25.5 26.53 25.5 26.5335C25.5 26.537 25.5 26.5404 25.5 26.5439C25.5 26.5474 25.5 26.5509 25.5 26.5544C25.5 26.5579 25.5 26.5614 25.5 26.5649C25.5 26.5684 25.5 26.572 25.5 26.5755C25.5 26.579 25.5 26.5825 25.5 26.5861C25.5 26.5896 25.5 26.5932 25.5 26.5967C25.5 26.6003 25.5 26.6039 25.5 26.6074C25.5 26.611 25.5 26.6146 25.5 26.6182C25.5 26.6217 25.5 26.6253 25.5 26.6289C25.5 26.6325 25.5 26.6361 25.5 26.6397C25.5 26.6434 25.5 26.647 25.5 26.6506C25.5 26.6542 25.5 26.6579 25.5 26.6615C25.5 26.6652 25.5 26.6688 25.5 26.6725C25.5 26.6761 25.5 26.6798 25.5 26.6834C25.5 26.6871 25.5 26.6908 25.5 26.6945C25.5 26.6982 25.5 26.7019 25.5 26.7055C25.5 26.7092 25.5 26.713 25.5 26.7167C25.5 26.7204 25.5 26.7241 25.5 26.7278C25.5 26.7315 25.5 26.7353 25.5 26.739C25.5 26.7428 25.5 26.7465 25.5 26.7503C25.5 26.754 25.5 26.7578 25.5 26.7615C25.5 26.7653 25.5 26.7691 25.5 26.7728C25.5 26.7766 25.5 26.7804 25.5 26.7842C25.5 26.788 25.5 26.7918 25.5 26.7956C25.5 26.7994 25.5 26.8032 25.5 26.8071C25.5 26.8109 25.5 26.8147 25.5 26.8185C25.5 26.8224 25.5 26.8262 25.5 26.8301C25.5 26.8339 25.5 26.8378 25.5 26.8416C25.5 26.8455 25.5 26.8494 25.5 26.8532C25.5 26.8571 25.5 26.861 25.5 26.8649C25.5 26.8688 25.5 26.8727 25.5 26.8766C25.5 26.8805 25.5 26.8844 25.5 26.8883C25.5 26.8922 25.5 26.8961 25.5 26.9C25.5 26.904 25.5 26.9079 25.5 26.9118C25.5 26.9158 25.5 26.9197 25.5 26.9237C25.5 26.9276 25.5 26.9316 25.5 26.9356C25.5 26.9395 25.5 26.9435 25.5 26.9475C25.5 26.9515 25.5 26.9554 25.5 26.9594C25.5 26.9634 25.5 26.9674 25.5 26.9714C25.5 26.9754 25.5 26.9795 25.5 26.9835C25.5 26.9875 25.5 26.9915 25.5 26.9955C25.5 26.9996 25.5 27.0036 25.5 27.0077C25.5 27.0117 25.5 27.0158 25.5 27.0198C25.5 27.0239 25.5 27.0279 25.5 27.032C25.5 27.0361 25.5 27.0401 25.5 27.0442C25.5 27.0483 25.5 27.0524 25.5 27.0565C25.5 27.0606 25.5 27.0647 25.5 27.0688C25.5 27.0729 25.5 27.077 25.5 27.0811C25.5 27.0852 25.5 27.0894 25.5 27.0935C25.5 27.0976 25.5 27.1018 25.5 27.1059C25.5 27.1101 25.5 27.1142 25.5 27.1184C25.5 27.1225 25.5 27.1267 25.5 27.1309C25.5 27.135 25.5 27.1392 25.5 27.1434C25.5 27.1476 25.5 27.1518 25.5 27.1559C25.5 27.1601 25.5 27.1643 25.5 27.1685C25.5 27.1728 25.5 27.177 25.5 27.1812C25.5 27.1854 25.5 27.1896 25.5 27.1939C25.5 27.1981 25.5 27.2023 25.5 27.2066C25.5 27.2108 25.5 27.2151 25.5 27.2193C25.5 27.2236 25.5 27.2278 25.5 27.2321C25.5 27.2364 25.5 27.2406 25.5 27.2449C25.5 27.2492 25.5 27.2535 25.5 27.2578C25.5 27.262 25.5 27.2663 25.5 27.2706C25.5 27.2749 25.5 27.2793 25.5 27.2836C25.5 27.2879 25.5 27.2922 25.5 27.2965C25.5 27.3008 25.5 27.3052 25.5 27.3095C25.5 27.3139 25.5 27.3182 25.5 27.3225C25.5 27.3269 25.5 27.3312 25.5 27.3356C25.5 27.34 25.5 27.3443 25.5 27.3487C25.5 27.3531 25.5 27.3575 25.5 27.3618C25.5 27.3662 25.5 27.3706 25.5 27.375C25.5 27.3794 25.5 27.3838 25.5 27.3882C25.5 27.3926 25.5 27.397 25.5 27.4014C25.5 27.4059 25.5 27.4103 25.5 27.4147C25.5 27.4191 25.5 27.4236 25.5 27.428C25.5 27.4324 25.5 27.4369 25.5 27.4413C25.5 27.4458 25.5 27.4503 25.5 27.4547C25.5 27.4592 25.5 27.4636 25.5 27.4681C25.5 27.4726 25.5 27.4771 25.5 27.4816C25.5 27.486 25.5 27.4905 25.5 27.495C25.5 27.4995 25.5 27.504 25.5 27.5085C25.5 27.513 25.5 27.5175 25.5 27.5221C25.5 27.5266 25.5 27.5311 25.5 27.5356C25.5 27.5402 25.5 27.5447 25.5 27.5492C25.5 27.5538 25.5 27.5583 25.5 27.5629C25.5 27.5674 25.5 27.572 25.5 27.5765C25.5 27.5811 25.5 27.5857 25.5 27.5902C25.5 27.5948 25.5 27.5994 25.5 27.604C25.5 27.6086 25.5 27.6131 25.5 27.6177C25.5 27.6223 25.5 27.6269 25.5 27.6315C25.5 27.6361 25.5 27.6407 25.5 27.6454C25.5 27.65 25.5 27.6546 25.5 27.6592C25.5 27.6638 25.5 27.6685 25.5 27.6731C25.5 27.6777 25.5 27.6824 25.5 27.687C25.5 27.6917 25.5 27.6963 25.5 27.701C25.5 27.7056 25.5 27.7103 25.5 27.715C25.5 27.7196 25.5 27.7243 25.5 27.729C25.5 27.7337 25.5 27.7383 25.5 27.743C25.5 27.7477 25.5 27.7524 25.5 27.7571C25.5 27.7618 25.5 27.7665 25.5 27.7712C25.5 27.7759 25.5 27.7806 25.5 27.7854C25.5 27.7901 25.5 27.7948 25.5 27.7995C25.5 27.8043 25.5 27.809 25.5 27.8137C25.5 27.8185 25.5 27.8232 25.5 27.8279C25.5 27.8327 25.5 27.8374 25.5 27.8422C25.5 27.847 25.5 27.8517 25.5 27.8565C25.5 27.8613 25.5 27.866 25.5 27.8708C25.5 27.8756 25.5 27.8804 25.5 27.8852C25.5 27.8899 25.5 27.8947 25.5 27.8995C25.5 27.9043 25.5 27.9091 25.5 27.9139C25.5 27.9188 25.5 27.9236 25.5 27.9284C25.5 27.9332 25.5 27.938 25.5 27.9428C25.5 27.9477 25.5 27.9525 25.5 27.9573C25.5 27.9622 25.5 27.967 25.5 27.9719C25.5 27.9767 25.5 27.9816 25.5 27.9864C25.5 27.9913 25.5 27.9961 25.5 28.001C25.5 28.0059 25.5 28.0107 25.5 28.0156C25.5 28.0205 25.5 28.0253 25.5 28.0302C25.5 28.0351 25.5 28.04 25.5 28.0449C25.5 28.0498 25.5 28.0547 25.5 28.0596C25.5 28.0645 25.5 28.0694 25.5 28.0743C25.5 28.0792 25.5 28.0841 25.5 28.089C25.5 28.094 25.5 28.0989 25.5 28.1038C25.5 28.1088 25.5 28.1137 25.5 28.1186C25.5 28.1236 25.5 28.1285 25.5 28.1335C25.5 28.1384 25.5 28.1434 25.5 28.1483C25.5 28.1533 25.5 28.1582 25.5 28.1632C25.5 28.1682 25.5 28.1731 25.5 28.1781C25.5 28.1831 25.5 28.1881 25.5 28.193C25.5 28.198 25.5 28.203 25.5 28.208C25.5 28.213 25.5 28.218 25.5 28.223C25.5 28.228 25.5 28.233 25.5 28.238C25.5 28.243 25.5 28.248 25.5 28.253C25.5 28.2581 25.5 28.2631 25.5 28.2681C25.5 28.2731 25.5 28.2782 25.5 28.2832C25.5 28.2882 25.5 28.2933 25.5 28.2983C25.5 28.3034 25.5 28.3084 25.5 28.3135C25.5 28.3185 25.5 28.3236 25.5 28.3286C25.5 28.3337 25.5 28.3388 25.5 28.3438C25.5 28.3489 25.5 28.354 25.5 28.3591C25.5 28.3641 25.5 28.3692 25.5 28.3743C25.5 28.3794 25.5 28.3845 25.5 28.3896C25.5 28.3947 25.5 28.3998 25.5 28.4049C25.5 28.41 25.5 28.4151 25.5 28.4202C25.5 28.4253 25.5 28.4304 25.5 28.4355C25.5 28.4406 25.5 28.4458 25.5 28.4509C25.5 28.456 25.5 28.4612 25.5 28.4663C25.5 28.4714 25.5 28.4766 25.5 28.4817C25.5 28.4869 25.5 28.492 25.5 28.4972C25.5 28.5023 25.5 28.5075 25.5 28.5126C25.5 28.5178 25.5 28.5229 25.5 28.5281C25.5 28.5333 25.5 28.5384 25.5 28.5436C25.5 28.5488 25.5 28.554 25.5 28.5592C25.5 28.5643 25.5 28.5695 25.5 28.5747C25.5 28.5799 25.5 28.5851 25.5 28.5903C25.5 28.5955 25.5 28.6007 25.5 28.6059C25.5 28.6111 25.5 28.6163 25.5 28.6215C25.5 28.6267 25.5 28.632 25.5 28.6372C25.5 28.6424 25.5 28.6476 25.5 28.6529C25.5 28.6581 25.5 28.6633 25.5 28.6686C25.5 28.6738 25.5 28.679 25.5 28.6843C25.5 28.6895 25.5 28.6948 25.5 28.7C25.5 28.7053 25.5 28.7105 25.5 28.7158C25.5 28.721 25.5 28.7263 25.5 28.7316C25.5 28.7368 25.5 28.7421 25.5 28.7474C25.5 28.7526 25.5 28.7579 25.5 28.7632C25.5 28.7685 25.5 28.7738 25.5 28.7791C25.5 28.7843 25.5 28.7896 25.5 28.7949C25.5 28.8002 25.5 28.8055 25.5 28.8108C25.5 28.8161 25.5 28.8214 25.5 28.8267C25.5 28.832 25.5 28.8374 25.5 28.8427C25.5 28.848 25.5 28.8533 25.5 28.8586C25.5 28.8639 25.5 28.8693 25.5 28.8746C25.5 28.8799 25.5 28.8853 25.5 28.8906C25.5 28.8959 25.5 28.9013 25.5 28.9066C25.5 28.912 25.5 28.9173 25.5 28.9227C25.5 28.928 25.5 28.9334 25.5 28.9387C25.5 28.9441 25.5 28.9494 25.5 28.9548C25.5 28.9602 25.5 28.9655 25.5 28.9709C25.5 28.9763 25.5 28.9816 25.5 28.987C25.5 28.9924 25.5 28.9978 25.5 29.0032C25.5 29.0085 25.5 29.0139 25.5 29.0193C25.5 29.0247 25.5 29.0301 25.5 29.0355C25.5 29.0409 25.5 29.0463 25.5 29.0517C25.5 29.0571 25.5 29.0625 25.5 29.0679C25.5 29.0733 25.5 29.0787 25.5 29.0841C25.5 29.0896 25.5 29.095 25.5 29.1004C25.5 29.1058 25.5 29.1112 25.5 29.1167C25.5 29.1221 25.5 29.1275 25.5 29.133C25.5 29.1384 25.5 29.1438 25.5 29.1493C25.5 29.1547 25.5 29.1602 25.5 29.1656C25.5 29.171 25.5 29.1765 25.5 29.1819C25.5 29.1874 25.5 29.1929 25.5 29.1983C25.5 29.2038 25.5 29.2092 25.5 29.2147C25.5 29.2202 25.5 29.2256 25.5 29.2311C25.5 29.2366 25.5 29.242 25.5 29.2475C25.5 29.253 25.5 29.2585 25.5 29.264C25.5 29.2694 25.5 29.2749 25.5 29.2804C25.5 29.2859 25.5 29.2914 25.5 29.2969C25.5 29.3024 25.5 29.3079 25.5 29.3134C25.5 29.3189 25.5 29.3244 25.5 29.3299C25.5 29.3354 25.5 29.3409 25.5 29.3464C25.5 29.3519 25.5 29.3574 25.5 29.3629C25.5 29.3684 25.5 29.374 25.5 29.3795C25.5 29.385 25.5 29.3905 25.5 29.3961C25.5 29.4016 25.5 29.4071 25.5 29.4126C25.5 29.4182 25.5 29.4237 25.5 29.4292C25.5 29.4348 25.5 29.4403 25.5 29.4459C25.5 29.4514 25.5 29.457 25.5 29.4625C25.5 29.4681 25.5 29.4736 25.5 29.4792C25.5 29.4847 25.5 29.4903 25.5 29.4958C25.5 29.5014 25.5 29.5069 25.5 29.5125C25.5 29.5181 25.5 29.5236 25.5 29.5292C25.5 29.5348 25.5 29.5403 25.5 29.5459C25.5 29.5515 25.5 29.5571 25.5 29.5627C25.5 29.5682 25.5 29.5738 25.5 29.5794C25.5 29.585 25.5 29.5906 25.5 29.5962C25.5 29.6017 25.5 29.6073 25.5 29.6129C25.5 29.6185 25.5 29.6241 25.5 29.6297C25.5 29.6353 25.5 29.6409 25.5 29.6465C25.5 29.6521 25.5 29.6577 25.5 29.6633C25.5 29.6689 25.5 29.6746 25.5 29.6802C25.5 29.6858 25.5 29.6914 25.5 29.697C25.5 29.7026 25.5 29.7083 25.5 29.7139C25.5 29.7195 25.5 29.7251 25.5 29.7308C25.5 29.7364 25.5 29.742 25.5 29.7476C25.5 29.7533 25.5 29.7589 25.5 29.7645C25.5 29.7702 25.5 29.7758 25.5 29.7815C25.5 29.7871 25.5 29.7927 25.5 29.7984C25.5 29.804 25.5 29.8097 25.5 29.8153C25.5 29.821 25.5 29.8266 25.5 29.8323C25.5 29.8379 25.5 29.8436 25.5 29.8492C25.5 29.8549 25.5 29.8606 25.5 29.8662C25.5 29.8719 25.5 29.8775 25.5 29.8832C25.5 29.8889 25.5 29.8945 25.5 29.9002C25.5 29.9059 25.5 29.9116 25.5 29.9172C25.5 29.9229 25.5 29.9286 25.5 29.9343C25.5 29.9399 25.5 29.9456 25.5 29.9513C25.5 29.957 25.5 29.9627 25.5 29.9684C25.5 29.974 25.5 29.9797 25.5 29.9854C25.5 29.9911 25.5 29.9968 25.5 30.0025C25.5 30.0082 25.5 30.0139 25.5 30.0196C25.5 30.0253 25.5 30.031 25.5 30.0367C25.5 30.0424 25.5 30.0481 25.5 30.0538C25.5 30.0595 25.5 30.0652 25.5 30.0709C25.5 30.0766 25.5 30.0823 25.5 30.0881C25.5 30.0938 25.5 30.0995 25.5 30.1052C25.5 30.1109 25.5 30.1166 25.5 30.1223C25.5 30.1281 25.5 30.1338 25.5 30.1395C25.5 30.1452 25.5 30.151 25.5 30.1567C25.5 30.1624 25.5 30.1681 25.5 30.1739C25.5 30.1796 25.5 30.1853 25.5 30.1911C25.5 30.1968 25.5 30.2025 25.5 30.2083C25.5 30.214 25.5 30.2198 25.5 30.2255C25.5 30.2312 25.5 30.237 25.5 30.2427C25.5 30.2485 25.5 30.2542 25.5 30.26C25.5 30.2657 25.5 30.2714 25.5 30.2772C25.5 30.2829 25.5 30.2887 25.5 30.2945C25.5 30.3002 25.5 30.306 25.5 30.3117C25.5 30.3175 25.5 30.3232 25.5 30.329C25.5 30.3347 25.5 30.3405 25.5 30.3463C25.5 30.352 25.5 30.3578 25.5 30.3636C25.5 30.3693 25.5 30.3751 25.5 30.3809C25.5 30.3866 25.5 30.3924 25.5 30.3982C25.5 30.4039 25.5 30.4097 25.5 30.4155C25.5 30.4213 25.5 30.427 25.5 30.4328C25.5 30.4386 25.5 30.4444 25.5 30.4501C25.5 30.4559 25.5 30.4617 25.5 30.4675C25.5 30.4733 25.5 30.479 25.5 30.4848C25.5 30.4906 25.5 30.4964 25.5 30.5022C25.5 30.508 25.5 30.5138 25.5 30.5196C25.5 30.5253 25.5 30.5311 25.5 30.5369C25.5 30.5427 25.5 30.5485 25.5 30.5543C25.5 30.5601 25.5 30.5659 25.5 30.5717C25.5 30.5775 25.5 30.5833 25.5 30.5891C25.5 30.5949 25.5 30.6007 25.5 30.6065C25.5 30.6123 25.5 30.6181 25.5 30.6239C25.5 30.6297 25.5 30.6355 25.5 30.6413C25.5 30.6471 25.5 30.6529 25.5 30.6587C25.5 30.6645 25.5 30.6703 25.5 30.6761C25.5 30.682 25.5 30.6878 25.5 30.6936C25.5 30.6994 25.5 30.7052 25.5 30.711C25.5 30.7168 25.5 30.7227 25.5 30.7285C25.5 30.7343 25.5 30.7401 25.5 30.7459C25.5 30.7517 25.5 30.7576 25.5 30.7634C25.5 30.7692 25.5 30.775 25.5 30.7808C25.5 30.7867 25.5 30.7925 25.5 30.7983C25.5 30.8041 25.5 30.81 25.5 30.8158C25.5 30.8216 25.5 30.8274 25.5 30.8333C25.5 30.8391 25.5 30.8449 25.5 30.8507C25.5 30.8566 25.5 30.8624 25.5 30.8682C25.5 30.8741 25.5 30.8799 25.5 30.8857C25.5 30.8916 25.5 30.8974 25.5 30.9032C25.5 30.9091 25.5 30.9149 25.5 30.9207C25.5 30.9266 25.5 30.9324 25.5 30.9382C25.5 30.9441 25.5 30.9499 25.5 30.9557C25.5 30.9616 25.5 30.9674 25.5 30.9733C25.5 30.9791 25.5 30.9849 25.5 30.9908C25.5 30.9966 25.5 31.0025 25.5 31.0083C25.5 31.0141 25.5 31.02 25.5 31.0258C25.5 31.0317 25.5 31.0375 25.5 31.0434C25.5 31.0492 25.5 31.0551 25.5 31.0609C25.5 31.0667 25.5 31.0726 25.5 31.0784C25.5 31.0843 25.5 31.0901 25.5 31.096C25.5 31.1018 25.5 31.1077 25.5 31.1135C25.5 31.1194 25.5 31.1252 25.5 31.1311C25.5 31.1369 25.5 31.1428 25.5 31.1486C25.5 31.1545 25.5 31.1603 25.5 31.1662C25.5 31.172 25.5 31.1779 25.5 31.1837C25.5 31.1896 25.5 31.1954 25.5 31.2013C25.5 31.2071 25.5 31.213 25.5 31.2188C25.5 31.2247 25.5 31.2305 25.5 31.2364C25.5 31.2423 25.5 31.2481 25.5 31.254C25.5 31.2598 25.5 31.2657 25.5 31.2715C25.5 31.2774 25.5 31.2832 25.5 31.2891C25.5 31.295 25.5 31.3008 25.5 31.3067C25.5 31.3125 25.5 31.3184 25.5 31.3242C25.5 31.3301 25.5 31.336 25.5 31.3418C25.5 31.3477 25.5 31.3535 25.5 31.3594C25.5 31.3652 25.5 31.3711 25.5 31.377C25.5 31.3828 25.5 31.3887 25.5 31.3945C25.5 31.4004 25.5 31.4063 25.5 31.4121C25.5 31.418 25.5 31.4238 25.5 31.4297C25.5 31.4355 25.5 31.4414 25.5 31.4473C25.5 31.4531 25.5 31.459 25.5 31.4648C25.5 31.4707 25.5 31.4766 25.5 31.4824C25.5 31.4883 25.5 31.4941 25.5 31.5H28.5C28.5 31.4941 28.5 31.4883 28.5 31.4824C28.5 31.4766 28.5 31.4707 28.5 31.4648C28.5 31.459 28.5 31.4531 28.5 31.4473C28.5 31.4414 28.5 31.4355 28.5 31.4297C28.5 31.4238 28.5 31.418 28.5 31.4121C28.5 31.4063 28.5 31.4004 28.5 31.3945C28.5 31.3887 28.5 31.3828 28.5 31.377C28.5 31.3711 28.5 31.3652 28.5 31.3594C28.5 31.3535 28.5 31.3477 28.5 31.3418C28.5 31.336 28.5 31.3301 28.5 31.3242C28.5 31.3184 28.5 31.3125 28.5 31.3067C28.5 31.3008 28.5 31.295 28.5 31.2891C28.5 31.2832 28.5 31.2774 28.5 31.2715C28.5 31.2657 28.5 31.2598 28.5 31.254C28.5 31.2481 28.5 31.2423 28.5 31.2364C28.5 31.2305 28.5 31.2247 28.5 31.2188C28.5 31.213 28.5 31.2071 28.5 31.2013C28.5 31.1954 28.5 31.1896 28.5 31.1837C28.5 31.1779 28.5 31.172 28.5 31.1662C28.5 31.1603 28.5 31.1545 28.5 31.1486C28.5 31.1428 28.5 31.1369 28.5 31.1311C28.5 31.1252 28.5 31.1194 28.5 31.1135C28.5 31.1077 28.5 31.1018 28.5 31.096C28.5 31.0901 28.5 31.0843 28.5 31.0784C28.5 31.0726 28.5 31.0667 28.5 31.0609C28.5 31.0551 28.5 31.0492 28.5 31.0434C28.5 31.0375 28.5 31.0317 28.5 31.0258C28.5 31.02 28.5 31.0141 28.5 31.0083C28.5 31.0025 28.5 30.9966 28.5 30.9908C28.5 30.9849 28.5 30.9791 28.5 30.9733C28.5 30.9674 28.5 30.9616 28.5 30.9557C28.5 30.9499 28.5 30.9441 28.5 30.9382C28.5 30.9324 28.5 30.9266 28.5 30.9207C28.5 30.9149 28.5 30.9091 28.5 30.9032C28.5 30.8974 28.5 30.8916 28.5 30.8857C28.5 30.8799 28.5 30.8741 28.5 30.8682C28.5 30.8624 28.5 30.8566 28.5 30.8507C28.5 30.8449 28.5 30.8391 28.5 30.8333C28.5 30.8274 28.5 30.8216 28.5 30.8158C28.5 30.81 28.5 30.8041 28.5 30.7983C28.5 30.7925 28.5 30.7867 28.5 30.7808C28.5 30.775 28.5 30.7692 28.5 30.7634C28.5 30.7576 28.5 30.7517 28.5 30.7459C28.5 30.7401 28.5 30.7343 28.5 30.7285C28.5 30.7227 28.5 30.7168 28.5 30.711C28.5 30.7052 28.5 30.6994 28.5 30.6936C28.5 30.6878 28.5 30.682 28.5 30.6761C28.5 30.6703 28.5 30.6645 28.5 30.6587C28.5 30.6529 28.5 30.6471 28.5 30.6413C28.5 30.6355 28.5 30.6297 28.5 30.6239C28.5 30.6181 28.5 30.6123 28.5 30.6065C28.5 30.6007 28.5 30.5949 28.5 30.5891C28.5 30.5833 28.5 30.5775 28.5 30.5717C28.5 30.5659 28.5 30.5601 28.5 30.5543C28.5 30.5485 28.5 30.5427 28.5 30.5369C28.5 30.5311 28.5 30.5253 28.5 30.5196C28.5 30.5138 28.5 30.508 28.5 30.5022C28.5 30.4964 28.5 30.4906 28.5 30.4848C28.5 30.479 28.5 30.4733 28.5 30.4675C28.5 30.4617 28.5 30.4559 28.5 30.4501C28.5 30.4444 28.5 30.4386 28.5 30.4328C28.5 30.427 28.5 30.4213 28.5 30.4155C28.5 30.4097 28.5 30.4039 28.5 30.3982C28.5 30.3924 28.5 30.3866 28.5 30.3809C28.5 30.3751 28.5 30.3693 28.5 30.3636C28.5 30.3578 28.5 30.352 28.5 30.3463C28.5 30.3405 28.5 30.3347 28.5 30.329C28.5 30.3232 28.5 30.3175 28.5 30.3117C28.5 30.306 28.5 30.3002 28.5 30.2945C28.5 30.2887 28.5 30.2829 28.5 30.2772C28.5 30.2714 28.5 30.2657 28.5 30.26C28.5 30.2542 28.5 30.2485 28.5 30.2427C28.5 30.237 28.5 30.2312 28.5 30.2255C28.5 30.2198 28.5 30.214 28.5 30.2083C28.5 30.2025 28.5 30.1968 28.5 30.1911C28.5 30.1853 28.5 30.1796 28.5 30.1739C28.5 30.1681 28.5 30.1624 28.5 30.1567C28.5 30.151 28.5 30.1452 28.5 30.1395C28.5 30.1338 28.5 30.1281 28.5 30.1223C28.5 30.1166 28.5 30.1109 28.5 30.1052C28.5 30.0995 28.5 30.0938 28.5 30.0881C28.5 30.0823 28.5 30.0766 28.5 30.0709C28.5 30.0652 28.5 30.0595 28.5 30.0538C28.5 30.0481 28.5 30.0424 28.5 30.0367C28.5 30.031 28.5 30.0253 28.5 30.0196C28.5 30.0139 28.5 30.0082 28.5 30.0025C28.5 29.9968 28.5 29.9911 28.5 29.9854C28.5 29.9797 28.5 29.974 28.5 29.9684C28.5 29.9627 28.5 29.957 28.5 29.9513C28.5 29.9456 28.5 29.9399 28.5 29.9343C28.5 29.9286 28.5 29.9229 28.5 29.9172C28.5 29.9116 28.5 29.9059 28.5 29.9002C28.5 29.8945 28.5 29.8889 28.5 29.8832C28.5 29.8775 28.5 29.8719 28.5 29.8662C28.5 29.8606 28.5 29.8549 28.5 29.8492C28.5 29.8436 28.5 29.8379 28.5 29.8323C28.5 29.8266 28.5 29.821 28.5 29.8153C28.5 29.8097 28.5 29.804 28.5 29.7984C28.5 29.7927 28.5 29.7871 28.5 29.7815C28.5 29.7758 28.5 29.7702 28.5 29.7645C28.5 29.7589 28.5 29.7533 28.5 29.7476C28.5 29.742 28.5 29.7364 28.5 29.7308C28.5 29.7251 28.5 29.7195 28.5 29.7139C28.5 29.7083 28.5 29.7026 28.5 29.697C28.5 29.6914 28.5 29.6858 28.5 29.6802C28.5 29.6746 28.5 29.6689 28.5 29.6633C28.5 29.6577 28.5 29.6521 28.5 29.6465C28.5 29.6409 28.5 29.6353 28.5 29.6297C28.5 29.6241 28.5 29.6185 28.5 29.6129C28.5 29.6073 28.5 29.6017 28.5 29.5962C28.5 29.5906 28.5 29.585 28.5 29.5794C28.5 29.5738 28.5 29.5682 28.5 29.5627C28.5 29.5571 28.5 29.5515 28.5 29.5459C28.5 29.5403 28.5 29.5348 28.5 29.5292C28.5 29.5236 28.5 29.5181 28.5 29.5125C28.5 29.5069 28.5 29.5014 28.5 29.4958C28.5 29.4903 28.5 29.4847 28.5 29.4792C28.5 29.4736 28.5 29.4681 28.5 29.4625C28.5 29.457 28.5 29.4514 28.5 29.4459C28.5 29.4403 28.5 29.4348 28.5 29.4292C28.5 29.4237 28.5 29.4182 28.5 29.4126C28.5 29.4071 28.5 29.4016 28.5 29.3961C28.5 29.3905 28.5 29.385 28.5 29.3795C28.5 29.374 28.5 29.3684 28.5 29.3629C28.5 29.3574 28.5 29.3519 28.5 29.3464C28.5 29.3409 28.5 29.3354 28.5 29.3299C28.5 29.3244 28.5 29.3189 28.5 29.3134C28.5 29.3079 28.5 29.3024 28.5 29.2969C28.5 29.2914 28.5 29.2859 28.5 29.2804C28.5 29.2749 28.5 29.2694 28.5 29.264C28.5 29.2585 28.5 29.253 28.5 29.2475C28.5 29.242 28.5 29.2366 28.5 29.2311C28.5 29.2256 28.5 29.2202 28.5 29.2147C28.5 29.2092 28.5 29.2038 28.5 29.1983C28.5 29.1929 28.5 29.1874 28.5 29.1819C28.5 29.1765 28.5 29.171 28.5 29.1656C28.5 29.1602 28.5 29.1547 28.5 29.1493C28.5 29.1438 28.5 29.1384 28.5 29.133C28.5 29.1275 28.5 29.1221 28.5 29.1167C28.5 29.1112 28.5 29.1058 28.5 29.1004C28.5 29.095 28.5 29.0896 28.5 29.0841C28.5 29.0787 28.5 29.0733 28.5 29.0679C28.5 29.0625 28.5 29.0571 28.5 29.0517C28.5 29.0463 28.5 29.0409 28.5 29.0355C28.5 29.0301 28.5 29.0247 28.5 29.0193C28.5 29.0139 28.5 29.0085 28.5 29.0032C28.5 28.9978 28.5 28.9924 28.5 28.987C28.5 28.9816 28.5 28.9763 28.5 28.9709C28.5 28.9655 28.5 28.9602 28.5 28.9548C28.5 28.9494 28.5 28.9441 28.5 28.9387C28.5 28.9334 28.5 28.928 28.5 28.9227C28.5 28.9173 28.5 28.912 28.5 28.9066C28.5 28.9013 28.5 28.8959 28.5 28.8906C28.5 28.8853 28.5 28.8799 28.5 28.8746C28.5 28.8693 28.5 28.8639 28.5 28.8586C28.5 28.8533 28.5 28.848 28.5 28.8427C28.5 28.8374 28.5 28.832 28.5 28.8267C28.5 28.8214 28.5 28.8161 28.5 28.8108C28.5 28.8055 28.5 28.8002 28.5 28.7949C28.5 28.7896 28.5 28.7843 28.5 28.7791C28.5 28.7738 28.5 28.7685 28.5 28.7632C28.5 28.7579 28.5 28.7526 28.5 28.7474C28.5 28.7421 28.5 28.7368 28.5 28.7316C28.5 28.7263 28.5 28.721 28.5 28.7158C28.5 28.7105 28.5 28.7053 28.5 28.7C28.5 28.6948 28.5 28.6895 28.5 28.6843C28.5 28.679 28.5 28.6738 28.5 28.6686C28.5 28.6633 28.5 28.6581 28.5 28.6529C28.5 28.6476 28.5 28.6424 28.5 28.6372C28.5 28.632 28.5 28.6267 28.5 28.6215C28.5 28.6163 28.5 28.6111 28.5 28.6059C28.5 28.6007 28.5 28.5955 28.5 28.5903C28.5 28.5851 28.5 28.5799 28.5 28.5747C28.5 28.5695 28.5 28.5643 28.5 28.5592C28.5 28.554 28.5 28.5488 28.5 28.5436C28.5 28.5384 28.5 28.5333 28.5 28.5281C28.5 28.5229 28.5 28.5178 28.5 28.5126C28.5 28.5075 28.5 28.5023 28.5 28.4972C28.5 28.492 28.5 28.4869 28.5 28.4817C28.5 28.4766 28.5 28.4714 28.5 28.4663C28.5 28.4612 28.5 28.456 28.5 28.4509C28.5 28.4458 28.5 28.4406 28.5 28.4355C28.5 28.4304 28.5 28.4253 28.5 28.4202C28.5 28.4151 28.5 28.41 28.5 28.4049C28.5 28.3998 28.5 28.3947 28.5 28.3896C28.5 28.3845 28.5 28.3794 28.5 28.3743C28.5 28.3692 28.5 28.3641 28.5 28.3591C28.5 28.354 28.5 28.3489 28.5 28.3438C28.5 28.3388 28.5 28.3337 28.5 28.3286C28.5 28.3236 28.5 28.3185 28.5 28.3135C28.5 28.3084 28.5 28.3034 28.5 28.2983C28.5 28.2933 28.5 28.2882 28.5 28.2832C28.5 28.2782 28.5 28.2731 28.5 28.2681C28.5 28.2631 28.5 28.2581 28.5 28.253C28.5 28.248 28.5 28.243 28.5 28.238C28.5 28.233 28.5 28.228 28.5 28.223C28.5 28.218 28.5 28.213 28.5 28.208C28.5 28.203 28.5 28.198 28.5 28.193C28.5 28.1881 28.5 28.1831 28.5 28.1781C28.5 28.1731 28.5 28.1682 28.5 28.1632C28.5 28.1582 28.5 28.1533 28.5 28.1483C28.5 28.1434 28.5 28.1384 28.5 28.1335C28.5 28.1285 28.5 28.1236 28.5 28.1186C28.5 28.1137 28.5 28.1088 28.5 28.1038C28.5 28.0989 28.5 28.094 28.5 28.089C28.5 28.0841 28.5 28.0792 28.5 28.0743C28.5 28.0694 28.5 28.0645 28.5 28.0596C28.5 28.0547 28.5 28.0498 28.5 28.0449C28.5 28.04 28.5 28.0351 28.5 28.0302C28.5 28.0253 28.5 28.0205 28.5 28.0156C28.5 28.0107 28.5 28.0059 28.5 28.001C28.5 27.9961 28.5 27.9913 28.5 27.9864C28.5 27.9816 28.5 27.9767 28.5 27.9719C28.5 27.967 28.5 27.9622 28.5 27.9573C28.5 27.9525 28.5 27.9477 28.5 27.9428C28.5 27.938 28.5 27.9332 28.5 27.9284C28.5 27.9236 28.5 27.9188 28.5 27.9139C28.5 27.9091 28.5 27.9043 28.5 27.8995C28.5 27.8947 28.5 27.8899 28.5 27.8852C28.5 27.8804 28.5 27.8756 28.5 27.8708C28.5 27.866 28.5 27.8613 28.5 27.8565C28.5 27.8517 28.5 27.847 28.5 27.8422C28.5 27.8374 28.5 27.8327 28.5 27.8279C28.5 27.8232 28.5 27.8185 28.5 27.8137C28.5 27.809 28.5 27.8043 28.5 27.7995C28.5 27.7948 28.5 27.7901 28.5 27.7854C28.5 27.7806 28.5 27.7759 28.5 27.7712C28.5 27.7665 28.5 27.7618 28.5 27.7571C28.5 27.7524 28.5 27.7477 28.5 27.743C28.5 27.7383 28.5 27.7337 28.5 27.729C28.5 27.7243 28.5 27.7196 28.5 27.715C28.5 27.7103 28.5 27.7056 28.5 27.701C28.5 27.6963 28.5 27.6917 28.5 27.687C28.5 27.6824 28.5 27.6777 28.5 27.6731C28.5 27.6685 28.5 27.6638 28.5 27.6592C28.5 27.6546 28.5 27.65 28.5 27.6454C28.5 27.6407 28.5 27.6361 28.5 27.6315C28.5 27.6269 28.5 27.6223 28.5 27.6177C28.5 27.6131 28.5 27.6086 28.5 27.604C28.5 27.5994 28.5 27.5948 28.5 27.5902C28.5 27.5857 28.5 27.5811 28.5 27.5765C28.5 27.572 28.5 27.5674 28.5 27.5629C28.5 27.5583 28.5 27.5538 28.5 27.5492C28.5 27.5447 28.5 27.5402 28.5 27.5356C28.5 27.5311 28.5 27.5266 28.5 27.5221C28.5 27.5175 28.5 27.513 28.5 27.5085C28.5 27.504 28.5 27.4995 28.5 27.495C28.5 27.4905 28.5 27.486 28.5 27.4816C28.5 27.4771 28.5 27.4726 28.5 27.4681C28.5 27.4636 28.5 27.4592 28.5 27.4547C28.5 27.4503 28.5 27.4458 28.5 27.4413C28.5 27.4369 28.5 27.4324 28.5 27.428C28.5 27.4236 28.5 27.4191 28.5 27.4147C28.5 27.4103 28.5 27.4059 28.5 27.4014C28.5 27.397 28.5 27.3926 28.5 27.3882C28.5 27.3838 28.5 27.3794 28.5 27.375C28.5 27.3706 28.5 27.3662 28.5 27.3618C28.5 27.3575 28.5 27.3531 28.5 27.3487C28.5 27.3443 28.5 27.34 28.5 27.3356C28.5 27.3312 28.5 27.3269 28.5 27.3225C28.5 27.3182 28.5 27.3139 28.5 27.3095C28.5 27.3052 28.5 27.3008 28.5 27.2965C28.5 27.2922 28.5 27.2879 28.5 27.2836C28.5 27.2793 28.5 27.2749 28.5 27.2706C28.5 27.2663 28.5 27.262 28.5 27.2578C28.5 27.2535 28.5 27.2492 28.5 27.2449C28.5 27.2406 28.5 27.2364 28.5 27.2321C28.5 27.2278 28.5 27.2236 28.5 27.2193C28.5 27.2151 28.5 27.2108 28.5 27.2066C28.5 27.2023 28.5 27.1981 28.5 27.1939C28.5 27.1896 28.5 27.1854 28.5 27.1812C28.5 27.177 28.5 27.1728 28.5 27.1685C28.5 27.1643 28.5 27.1601 28.5 27.1559C28.5 27.1518 28.5 27.1476 28.5 27.1434C28.5 27.1392 28.5 27.135 28.5 27.1309C28.5 27.1267 28.5 27.1225 28.5 27.1184C28.5 27.1142 28.5 27.1101 28.5 27.1059C28.5 27.1018 28.5 27.0976 28.5 27.0935C28.5 27.0894 28.5 27.0852 28.5 27.0811C28.5 27.077 28.5 27.0729 28.5 27.0688C28.5 27.0647 28.5 27.0606 28.5 27.0565C28.5 27.0524 28.5 27.0483 28.5 27.0442C28.5 27.0401 28.5 27.0361 28.5 27.032C28.5 27.0279 28.5 27.0239 28.5 27.0198C28.5 27.0158 28.5 27.0117 28.5 27.0077C28.5 27.0036 28.5 26.9996 28.5 26.9955C28.5 26.9915 28.5 26.9875 28.5 26.9835C28.5 26.9795 28.5 26.9754 28.5 26.9714C28.5 26.9674 28.5 26.9634 28.5 26.9594C28.5 26.9554 28.5 26.9515 28.5 26.9475C28.5 26.9435 28.5 26.9395 28.5 26.9356C28.5 26.9316 28.5 26.9276 28.5 26.9237C28.5 26.9197 28.5 26.9158 28.5 26.9118C28.5 26.9079 28.5 26.904 28.5 26.9C28.5 26.8961 28.5 26.8922 28.5 26.8883C28.5 26.8844 28.5 26.8805 28.5 26.8766C28.5 26.8727 28.5 26.8688 28.5 26.8649C28.5 26.861 28.5 26.8571 28.5 26.8532C28.5 26.8494 28.5 26.8455 28.5 26.8416C28.5 26.8378 28.5 26.8339 28.5 26.8301C28.5 26.8262 28.5 26.8224 28.5 26.8185C28.5 26.8147 28.5 26.8109 28.5 26.8071C28.5 26.8032 28.5 26.7994 28.5 26.7956C28.5 26.7918 28.5 26.788 28.5 26.7842C28.5 26.7804 28.5 26.7766 28.5 26.7728C28.5 26.7691 28.5 26.7653 28.5 26.7615C28.5 26.7578 28.5 26.754 28.5 26.7503C28.5 26.7465 28.5 26.7428 28.5 26.739C28.5 26.7353 28.5 26.7315 28.5 26.7278C28.5 26.7241 28.5 26.7204 28.5 26.7167C28.5 26.713 28.5 26.7092 28.5 26.7055C28.5 26.7019 28.5 26.6982 28.5 26.6945C28.5 26.6908 28.5 26.6871 28.5 26.6834C28.5 26.6798 28.5 26.6761 28.5 26.6725C28.5 26.6688 28.5 26.6652 28.5 26.6615C28.5 26.6579 28.5 26.6542 28.5 26.6506C28.5 26.647 28.5 26.6434 28.5 26.6397C28.5 26.6361 28.5 26.6325 28.5 26.6289C28.5 26.6253 28.5 26.6217 28.5 26.6182C28.5 26.6146 28.5 26.611 28.5 26.6074C28.5 26.6039 28.5 26.6003 28.5 26.5967C28.5 26.5932 28.5 26.5896 28.5 26.5861C28.5 26.5825 28.5 26.579 28.5 26.5755C28.5 26.572 28.5 26.5684 28.5 26.5649C28.5 26.5614 28.5 26.5579 28.5 26.5544C28.5 26.5509 28.5 26.5474 28.5 26.5439C28.5 26.5404 28.5 26.537 28.5 26.5335C28.5 26.53 28.5 26.5266 28.5 26.5231C28.5 26.5197 28.5 26.5162 28.5 26.5128C28.5 26.5093 28.5 26.5059 28.5 26.5025C28.5 26.499 28.5 26.4956 28.5 26.4922C28.5 26.4888 28.5 26.4854 28.5 26.482C28.5 26.4786 28.5 26.4752 28.5 26.4718C28.5 26.4685 28.5 26.4651 28.5 26.4617C28.5 26.4584 28.5 26.455 28.5 26.4517C28.5 26.4483 28.5 26.445 28.5 26.4416C28.5 26.4383 28.5 26.435 28.5 26.4316C28.5 26.4283 28.5 26.425 28.5 26.4217C28.5 26.4184 28.5 26.4151 28.5 26.4118C28.5 26.4085 28.5 26.4052 28.5 26.402C28.5 26.3987 28.5 26.3954 28.5 26.3921C28.5 26.3889 28.5 26.3856 28.5 26.3824C28.5 26.3791 28.5 26.3759 28.5 26.3727C28.5 26.3694 28.5 26.3662 28.5 26.363C28.5 26.3598 28.5 26.3566 28.5 26.3534C28.5 26.3502 28.5 26.347 28.5 26.3438C28.5 26.3406 28.5 26.3375 28.5 26.3343C28.5 26.3311 28.5 26.328 28.5 26.3248C28.5 26.3217 28.5 26.3185 28.5 26.3154C28.5 26.3122 28.5 26.3091 28.5 26.306C28.5 26.3029 28.5 26.2998 28.5 26.2966C28.5 26.2935 28.5 26.2904 28.5 26.2874C28.5 26.2843 28.5 26.2812 28.5 26.2781C28.5 26.275 28.5 26.272 28.5 26.2689C28.5 26.2659 28.5 26.2628 28.5 26.2598C28.5 26.2567 28.5 26.2537 28.5 26.2507C28.5 26.2476 28.5 26.2446 28.5 26.2416C28.5 26.2386 28.5 26.2356 28.5 26.2326C28.5 26.2296 28.5 26.2266 28.5 26.2236C28.5 26.2207 28.5 26.2177 28.5 26.2147C28.5 26.2118 28.5 26.2088 28.5 26.2059C28.5 26.2029 28.5 26.2 28.5 26.197C28.5 26.1941 28.5 26.1912 28.5 26.1883C28.5 26.1854 28.5 26.1825 28.5 26.1796C28.5 26.1767 28.5 26.1738 28.5 26.1709C28.5 26.168 28.5 26.1651 28.5 26.1623C28.5 26.1594 28.5 26.1565 28.5 26.1537C28.5 26.1508 28.5 26.148 28.5 26.1452C28.5 26.1423 28.5 26.1395 28.5 26.1367C28.5 26.1339 28.5 26.1311 28.5 26.1283C28.5 26.1255 28.5 26.1227 28.5 26.1199C28.5 26.1171 28.5 26.1143 28.5 26.1116C28.5 26.1088 28.5 26.1061 28.5 26.1033C28.5 26.1006 28.5 26.0978 28.5 26.0951C28.5 26.0923 28.5 26.0896 28.5 26.0869C28.5 26.0842 28.5 26.0815 28.5 26.0788C28.5 26.0761 28.5 26.0734 28.5 26.0707C28.5 26.068 28.5 26.0654 28.5 26.0627C28.5 26.06 28.5 26.0574 28.5 26.0547C28.5 26.0521 28.5 26.0494 28.5 26.0468C28.5 26.0442 28.5 26.0415 28.5 26.0389C28.5 26.0363 28.5 26.0337 28.5 26.0311C28.5 26.0285 28.5 26.0259 28.5 26.0233C28.5 26.0208 28.5 26.0182 28.5 26.0156C28.5 26.0131 28.5 26.0105 28.5 26.008C28.5 26.0054 28.5 26.0029 28.5 26.0003C28.5 25.9978 28.5 25.9953 28.5 25.9928C28.5 25.9903 28.5 25.9878 28.5 25.9853C28.5 25.9828 28.5 25.9803 28.5 25.9778C28.5 25.9753 28.5 25.9729 28.5 25.9704C28.5 25.968 28.5 25.9655 28.5 25.9631C28.5 25.9606 28.5 25.9582 28.5 25.9558C28.5 25.9533 28.5 25.9509 28.5 25.9485C28.5 25.9461 28.5 25.9437 28.5 25.9413C28.5 25.9389 28.5 25.9365 28.5 25.9342C28.5 25.9318 28.5 25.9294 28.5 25.9271C28.5 25.9247 28.5 25.9224 28.5 25.9201C28.5 25.9177 28.5 25.9154 28.5 25.9131C28.5 25.9107 28.5 25.9084 28.5 25.9061C28.5 25.9038 28.5 25.9015 28.5 25.8993C28.5 25.897 28.5 25.8947 28.5 25.8924C28.5 25.8902 28.5 25.8879 28.5 25.8857C28.5 25.8834 28.5 25.8812 28.5 25.879C28.5 25.8767 28.5 25.8745 28.5 25.8723C28.5 25.8701 28.5 25.8679 28.5 25.8657C28.5 25.8635 28.5 25.8613 28.5 25.8591C28.5 25.857 28.5 25.8548 28.5 25.8526C28.5 25.8505 28.5 25.8483 28.5 25.8462C28.5 25.8441 28.5 25.8419 28.5 25.8398C28.5 25.8377 28.5 25.8356 28.5 25.8335C28.5 25.8314 28.5 25.8293 28.5 25.8272C28.5 25.8251 28.5 25.823 28.5 25.821C28.5 25.8189 28.5 25.8168 28.5 25.8148C28.5 25.8128 28.5 25.8107 28.5 25.8087C28.5 25.8067 28.5 25.8046 28.5 25.8026C28.5 25.8006 28.5 25.7986 28.5 25.7966C28.5 25.7946 28.5 25.7927 28.5 25.7907C28.5 25.7887 28.5 25.7867 28.5 25.7848C28.5 25.7828 28.5 25.7809 28.5 25.779C28.5 25.777 28.5 25.7751 28.5 25.7732C28.5 25.7713 28.5 25.7694 28.5 25.7675C28.5 25.7656 28.5 25.7637 28.5 25.7618C28.5 25.7599 28.5 25.758 28.5 25.7562C28.5 25.7543 28.5 25.7525 28.5 25.7506C28.5 25.7488 28.5 25.747 28.5 25.7451C28.5 25.7433 28.5 25.7415 28.5 25.7397C28.5 25.7379 28.5 25.7361 28.5 25.7343C28.5 25.7325 28.5 25.7308 28.5 25.729C28.5 25.7272 28.5 25.7255 28.5 25.7237C28.5 25.722 28.5 25.7203 28.5 25.7185C28.5 25.7168 28.5 25.7151 28.5 25.7134C28.5 25.7117 28.5 25.71 28.5 25.7083C28.5 25.7066 28.5 25.7049 28.5 25.7032C28.5 25.7016 28.5 25.6999 28.5 25.6983C28.5 25.6966 28.5 25.695 28.5 25.6934C28.5 25.6917 28.5 25.6901 28.5 25.6885C28.5 25.6869 28.5 25.6853 28.5 25.6837C28.5 25.6821 28.5 25.6805 28.5 25.6789C28.5 25.6774 28.5 25.6758 28.5 25.6743C28.5 25.6727 28.5 25.6712 28.5 25.6696C28.5 25.6681 28.5 25.6666 28.5 25.6651C28.5 25.6636 28.5 25.6621 28.5 25.6606C28.5 25.6591 28.5 25.6576 28.5 25.6561C28.5 25.6546 28.5 25.6532 28.5 25.6517C28.5 25.6503 28.5 25.6488 28.5 25.6474C28.5 25.646 28.5 25.6445 28.5 25.6431C28.5 25.6417 28.5 25.6403 28.5 25.6389C28.5 25.6375 28.5 25.6361 28.5 25.6348C28.5 25.6334 28.5 25.632 28.5 25.6307C28.5 25.6293 28.5 25.628 28.5 25.6266C28.5 25.6253 28.5 25.624 28.5 25.6227C28.5 25.6214 28.5 25.6201 28.5 25.6188C28.5 25.6175 28.5 25.6162 28.5 25.6149C28.5 25.6136 28.5 25.6124 28.5 25.6111C28.5 25.6099 28.5 25.6086 28.5 25.6074C28.5 25.6062 28.5 25.605 28.5 25.6037C28.5 25.6025 28.5 25.6013 28.5 25.6001C28.5 25.5989 28.5 25.5978 28.5 25.5966C28.5 25.5954 28.5 25.5943 28.5 25.5931C28.5 25.592 28.5 25.5908 28.5 25.5897C28.5 25.5886 28.5 25.5874 28.5 25.5863C28.5 25.5852 28.5 25.5841 28.5 25.583C28.5 25.5819 28.5 25.5809 28.5 25.5798C28.5 25.5787 28.5 25.5777 28.5 25.5766C28.5 25.5756 28.5 25.5745 28.5 25.5735C28.5 25.5725 28.5 25.5715 28.5 25.5705C28.5 25.5695 28.5 25.5685 28.5 25.5675C28.5 25.5665 28.5 25.5655 28.5 25.5646C28.5 25.5636 28.5 25.5626 28.5 25.5617C28.5 25.5608 28.5 25.5598 28.5 25.5589C28.5 25.558 28.5 25.5571 28.5 25.5562C28.5 25.5553 28.5 25.5544 28.5 25.5535C28.5 25.5526 28.5 25.5518 28.5 25.5509C28.5 25.55 28.5 25.5492 28.5 25.5483C28.5 25.5475 28.5 25.5467 28.5 25.5459C28.5 25.5451 28.5 25.5442 28.5 25.5435C28.5 25.5427 28.5 25.5419 28.5 25.5411C28.5 25.5403 28.5 25.5396 28.5 25.5388C28.5 25.5381 28.5 25.5373 28.5 25.5366C28.5 25.5359 28.5 25.5351 28.5 25.5344C28.5 25.5337 28.5 25.533 28.5 25.5323C28.5 25.5316 28.5 25.531 28.5 25.5303C28.5 25.5296 28.5 25.529 28.5 25.5283C28.5 25.5277 28.5 25.527 28.5 25.5264C28.5 25.5258 28.5 25.5252 28.5 25.5246C28.5 25.524 28.5 25.5234 28.5 25.5228C28.5 25.5222 28.5 25.5217 28.5 25.5211C28.5 25.5206 28.5 25.52 28.5 25.5195C28.5 25.5189 28.5 25.5184 28.5 25.5179C28.5 25.5174 28.5 25.5169 28.5 25.5164C28.5 25.5159 28.5 25.5154 28.5 25.5149C28.5 25.5145 28.5 25.514 28.5 25.5136C28.5 25.5131 28.5 25.5127 28.5 25.5122C28.5 25.5118 28.5 25.5114 28.5 25.511C28.5 25.5106 28.5 25.5102 28.5 25.5098C28.5 25.5094 28.5 25.5091 28.5 25.5087C28.5 25.5083 28.5 25.508 28.5 25.5076C28.5 25.5073 28.5 25.507 28.5 25.5067C28.5 25.5064 28.5 25.506 28.5 25.5058C28.5 25.5055 28.5 25.5052 28.5 25.5049C28.5 25.5046 28.5 25.5044 28.5 25.5041C28.5 25.5039 28.5 25.5036 28.5 25.5034C28.5 25.5032 28.5 25.503 28.5 25.5028C28.5 25.5026 28.5 25.5024 28.5 25.5022C28.5 25.502 28.5 25.5018 28.5 25.5017C28.5 25.5015 28.5 25.5014 28.5 25.5012C28.5 25.5011 28.5 25.501 28.5 25.5009C28.5 25.5007 28.5 25.5006 28.5 25.5005C28.5 25.5005 28.5 25.5004 28.5 25.5003C28.5 25.5002 28.5 25.5002 28.5 25.5001C28.5 25.5001 28.5 25.5001 28.5 25.5C28.5 25.5 28.5 25.5 27 25.5ZM11 15V40.5H14V15H11ZM12.5 42H42V39H12.5V42ZM43.5 40.5V15H40.5V40.5H43.5Z" fill="#232323"/>
</svg>
