<svg width="54" height="54" viewBox="0 0 54 54" fill="none" xmlns="http://www.w3.org/2000/svg">
<path d="M52 27C52 40.8071 40.8071 52 27 52C13.1929 52 2 40.8071 2 27C2 13.1929 13.1929 2 27 2C40.8071 2 52 13.1929 52 27Z" fill="white"/>
<path d="M25.9393 46.0607C26.5251 46.6464 27.4749 46.6464 28.0607 46.0607L37.6066 36.5147C38.1924 35.9289 38.1924 34.9792 37.6066 34.3934C37.0208 33.8076 36.0711 33.8076 35.4853 34.3934L27 42.8787L18.5147 34.3934C17.9289 33.8076 16.9792 33.8076 16.3934 34.3934C15.8076 34.9792 15.8076 35.9289 16.3934 36.5147L25.9393 46.0607ZM50.5 27C50.5 39.9787 39.9787 50.5 27 50.5V53.5C41.6355 53.5 53.5 41.6355 53.5 27H50.5ZM27 50.5C14.0213 50.5 3.5 39.9787 3.5 27H0.5C0.5 41.6355 12.3645 53.5 27 53.5V50.5ZM3.5 27C3.5 14.0213 14.0213 3.5 27 3.5V0.5C12.3645 0.5 0.5 12.3645 0.5 27H3.5ZM27 3.5C39.9787 3.5 50.5 14.0213 50.5 27H53.5C53.5 12.3645 41.6355 0.5 27 0.5V3.5ZM25.5 6L25.5 45L28.5 45L28.5 6L25.5 6Z" fill="black"/>
</svg>
