<svg width="50" height="50" viewBox="0 0 50 50" fill="none" xmlns="http://www.w3.org/2000/svg">
<path d="M0 3.18C0 2.07876 0 1.52814 0.210911 1.10604C0.404497 0.718616 0.718616 0.404497 1.10604 0.210911C1.52814 0 2.07876 0 3.18 0H29.33C36.4881 0 40.0671 0 42.8107 1.37092C45.329 2.62923 47.3708 4.671 48.6291 7.18928C50 9.93292 50 13.5119 50 20.67V46.82C50 47.9212 50 48.4719 49.7891 48.894C49.5955 49.2814 49.2814 49.5955 48.894 49.7891C48.4719 50 47.9212 50 46.82 50H3.18C2.07876 50 1.52814 50 1.10604 49.7891C0.718616 49.5955 0.404497 49.2814 0.210911 48.894C0 48.4719 0 47.9212 0 46.82V3.18Z" fill="white"/>
<path d="M10 0H38V20H10V0Z" fill="#232323"/>
<path d="M10 25H38V45H10V25Z" fill="#232323"/>
<path d="M28 3H35V16H28V3Z" fill="white"/>
</svg>
